<?xml version="1.0" standalone="no"?>
<!DOCTYPE svg PUBLIC "-//W3C//DTD SVG 20010904//EN"
 "http://www.w3.org/TR/2001/REC-SVG-20010904/DTD/svg10.dtd">
<svg version="1.0" xmlns="http://www.w3.org/2000/svg"
 width="504.000000pt" height="504.000000pt" viewBox="0 0 504.000000 504.000000"
 preserveAspectRatio="xMidYMid meet">

<g transform="translate(0.000000,504.000000) scale(0.100000,-0.100000)"
fill="#000000" stroke="none">
<path d="M2454 3791 c-21 -34 -48 -64 -59 -66 -11 -3 -48 -9 -83 -15 -284 -49
-563 -237 -737 -499 -59 -89 -154 -285 -155 -318 0 -7 -11 -13 -24 -13 -18 0
-27 -8 -35 -30 -6 -20 -17 -30 -30 -30 -49 0 -81 -110 -81 -279 1 -145 26
-248 67 -266 15 -6 23 -21 28 -54 10 -65 61 -214 102 -296 157 -313 425 -536
755 -627 76 -21 104 -23 318 -23 214 0 242 2 318 23 330 91 598 314 755 627
41 82 92 231 102 296 5 33 13 48 28 54 78 35 93 409 21 523 -8 12 -24 22 -35
22 -13 0 -24 10 -30 30 -9 23 -17 30 -37 30 -25 0 -30 9 -65 99 -147 386 -494
672 -892 736 -85 14 -92 17 -120 52 -16 20 -39 48 -51 61 l-20 25 -40 -62z
m178 -146 c308 -41 584 -210 751 -462 94 -141 177 -353 193 -488 l6 -53 -48
-10 c-27 -6 -112 -20 -189 -33 l-141 -22 -314 130 -315 130 -3 -749 -2 -748
-50 0 -50 0 -2 748 -3 749 -314 -130 -315 -130 -110 17 c-61 10 -149 25 -195
33 l-83 16 6 52 c16 135 100 347 193 488 165 248 443 421 742 462 125 17 119
17 243 0z"/>
<path d="M2084 3309 c-41 -45 -15 -159 36 -159 31 0 55 39 55 90 0 51 -24 90
-55 90 -9 0 -25 -9 -36 -21z"/>
<path d="M2844 3309 c-41 -45 -15 -159 36 -159 31 0 55 39 55 90 0 51 -24 90
-55 90 -9 0 -25 -9 -36 -21z"/>
</g>
</svg>
